<svg width="394" height="447" viewBox="0 0 394 447" fill="none" xmlns="http://www.w3.org/2000/svg">
<mask id="path-1-outside-1_77_8" maskUnits="userSpaceOnUse" x="-0.8125" y="-0.00195312" width="394" height="447" fill="black">
<rect fill="white" x="-0.8125" y="-0.00195312" width="394" height="447"/>
<path d="M226.917 163.401L215.484 186.852H211.507L206.536 186.28H201.068L194.605 185.708L188.143 185.136L187.149 183.42L185.658 179.988L184.663 177.7L178.698 165.688L167.762 145.669C166.105 143 162.691 137.547 162.294 137.09C161.896 136.632 154.837 126.604 151.357 121.646L145.392 112.495L136.444 101.627L126.999 90.7598L113.577 75.8885L93.1962 54.7254L87.2309 49.0057L82.757 44.4299L78.7802 40.998H74.3062L71.3236 42.714L68.341 45.0019L65.3583 51.2936L63.867 59.3012L61.3815 70.7407L59.3931 83.8961L57.9018 95.3356L56.4105 106.203L54.9192 116.499L54.4221 123.934L54.9192 139.95L55.4163 150.817L56.4105 160.541L58.3989 173.696L60.3873 183.992L64.3641 199.435L67.3468 209.731L71.8207 218.882L78.7802 230.894L83.7512 238.901L94.6875 252.057L97.6875 258.498L99.6875 267.998L98.6643 279.511L91.2078 294.383L85.2425 302.962L78.7802 312.114L70.3294 320.122L65.3583 324.125L60.8844 327.557L53.925 332.705L45.9713 337.281L42.4915 339.569L41.0002 342.429V345.86L42.9886 348.148L46.9655 351.008L52.4336 352.152L60.3873 353.296L68.341 354.44H80.2715H83.7512L83.2541 355.584L81.2657 357.3L78.7802 359.588L73.8091 365.308L71.3236 368.167L69.3352 371.599L68.8381 374.459L69.8323 375.031H71.8207L75.7975 373.315L83.7512 371.027L90.2136 370.455H96.6759L101.647 371.027L108.606 372.171L111.589 373.315L118.051 374.459L123.52 376.175L130.976 377.891L137.438 379.607L142.907 381.323L146.386 383.039L160.188 395.622L173.688 401.998L190.188 405.998H200.188L211.688 404.498L229.688 395.622L236.859 392.762L244.813 388.187L260.223 380.751L271.16 376.175L279.61 371.599L291.541 368.167H305.957L308.442 368.739L312.916 369.883L314.905 371.599L317.887 372.743L319.876 374.459C320.539 374.65 321.964 374.917 322.361 374.459C322.759 374.002 323.521 373.506 323.853 373.315V371.599L323.355 370.455L321.864 367.595L318.882 363.02L312.916 356.728L311.922 355.012L312.916 354.44L318.384 353.868L346.222 349.864C347.879 349.483 351.193 348.606 351.193 348.148C351.193 347.691 351.856 346.432 352.188 345.86L351.193 343.001L345.228 339.569L334.789 333.849L326.338 328.701L312.916 312.498L297.688 286.498L296.188 273.498L300.688 260.064L308.939 248.053L316.893 237.757L322.858 227.462L329.818 208.587L333.298 195.431L337.274 178.844L339.76 161.113L340.754 149.673L341.251 137.09L341.748 125.65L341.251 112.495L339.76 99.3394L336.777 73.0286L334.789 62.1611L332.8 53.5815C331.806 51.1029 329.818 46.0314 329.818 45.5738C329.818 45.1163 328.161 43.8579 327.332 43.2859H323.853L320.87 44.4299L312.419 52.4375L301.98 61.5891L292.038 73.0286L279.61 87.328L266.188 102.771L255.749 117.643L245.31 131.942L234.871 149.673L226.917 163.401Z"/>
</mask>
<path d="M226.917 163.401L215.484 186.852H211.507L206.536 186.28H201.068L194.605 185.708L188.143 185.136L187.149 183.42L185.658 179.988L184.663 177.7L178.698 165.688L167.762 145.669C166.105 143 162.691 137.547 162.294 137.09C161.896 136.632 154.837 126.604 151.357 121.646L145.392 112.495L136.444 101.627L126.999 90.7598L113.577 75.8885L93.1962 54.7254L87.2309 49.0057L82.757 44.4299L78.7802 40.998H74.3062L71.3236 42.714L68.341 45.0019L65.3583 51.2936L63.867 59.3012L61.3815 70.7407L59.3931 83.8961L57.9018 95.3356L56.4105 106.203L54.9192 116.499L54.4221 123.934L54.9192 139.95L55.4163 150.817L56.4105 160.541L58.3989 173.696L60.3873 183.992L64.3641 199.435L67.3468 209.731L71.8207 218.882L78.7802 230.894L83.7512 238.901L94.6875 252.057L97.6875 258.498L99.6875 267.998L98.6643 279.511L91.2078 294.383L85.2425 302.962L78.7802 312.114L70.3294 320.122L65.3583 324.125L60.8844 327.557L53.925 332.705L45.9713 337.281L42.4915 339.569L41.0002 342.429V345.86L42.9886 348.148L46.9655 351.008L52.4336 352.152L60.3873 353.296L68.341 354.44H80.2715H83.7512L83.2541 355.584L81.2657 357.3L78.7802 359.588L73.8091 365.308L71.3236 368.167L69.3352 371.599L68.8381 374.459L69.8323 375.031H71.8207L75.7975 373.315L83.7512 371.027L90.2136 370.455H96.6759L101.647 371.027L108.606 372.171L111.589 373.315L118.051 374.459L123.52 376.175L130.976 377.891L137.438 379.607L142.907 381.323L146.386 383.039L160.188 395.622L173.688 401.998L190.188 405.998H200.188L211.688 404.498L229.688 395.622L236.859 392.762L244.813 388.187L260.223 380.751L271.16 376.175L279.61 371.599L291.541 368.167H305.957L308.442 368.739L312.916 369.883L314.905 371.599L317.887 372.743L319.876 374.459C320.539 374.65 321.964 374.917 322.361 374.459C322.759 374.002 323.521 373.506 323.853 373.315V371.599L323.355 370.455L321.864 367.595L318.882 363.02L312.916 356.728L311.922 355.012L312.916 354.44L318.384 353.868L346.222 349.864C347.879 349.483 351.193 348.606 351.193 348.148C351.193 347.691 351.856 346.432 352.188 345.86L351.193 343.001L345.228 339.569L334.789 333.849L326.338 328.701L312.916 312.498L297.688 286.498L296.188 273.498L300.688 260.064L308.939 248.053L316.893 237.757L322.858 227.462L329.818 208.587L333.298 195.431L337.274 178.844L339.76 161.113L340.754 149.673L341.251 137.09L341.748 125.65L341.251 112.495L339.76 99.3394L336.777 73.0286L334.789 62.1611L332.8 53.5815C331.806 51.1029 329.818 46.0314 329.818 45.5738C329.818 45.1163 328.161 43.8579 327.332 43.2859H323.853L320.87 44.4299L312.419 52.4375L301.98 61.5891L292.038 73.0286L279.61 87.328L266.188 102.771L255.749 117.643L245.31 131.942L234.871 149.673L226.917 163.401Z" fill="#7A2A0A"/>
<path d="M226.917 163.401L215.484 186.852H211.507L206.536 186.28H201.068L194.605 185.708L188.143 185.136L187.149 183.42L185.658 179.988L184.663 177.7L178.698 165.688L167.762 145.669C166.105 143 162.691 137.547 162.294 137.09C161.896 136.632 154.837 126.604 151.357 121.646L145.392 112.495L136.444 101.627L126.999 90.7598L113.577 75.8885L93.1962 54.7254L87.2309 49.0057L82.757 44.4299L78.7802 40.998H74.3062L71.3236 42.714L68.341 45.0019L65.3583 51.2936L63.867 59.3012L61.3815 70.7407L59.3931 83.8961L57.9018 95.3356L56.4105 106.203L54.9192 116.499L54.4221 123.934L54.9192 139.95L55.4163 150.817L56.4105 160.541L58.3989 173.696L60.3873 183.992L64.3641 199.435L67.3468 209.731L71.8207 218.882L78.7802 230.894L83.7512 238.901L94.6875 252.057L97.6875 258.498L99.6875 267.998L98.6643 279.511L91.2078 294.383L85.2425 302.962L78.7802 312.114L70.3294 320.122L65.3583 324.125L60.8844 327.557L53.925 332.705L45.9713 337.281L42.4915 339.569L41.0002 342.429V345.86L42.9886 348.148L46.9655 351.008L52.4336 352.152L60.3873 353.296L68.341 354.44H80.2715H83.7512L83.2541 355.584L81.2657 357.3L78.7802 359.588L73.8091 365.308L71.3236 368.167L69.3352 371.599L68.8381 374.459L69.8323 375.031H71.8207L75.7975 373.315L83.7512 371.027L90.2136 370.455H96.6759L101.647 371.027L108.606 372.171L111.589 373.315L118.051 374.459L123.52 376.175L130.976 377.891L137.438 379.607L142.907 381.323L146.386 383.039L160.188 395.622L173.688 401.998L190.188 405.998H200.188L211.688 404.498L229.688 395.622L236.859 392.762L244.813 388.187L260.223 380.751L271.16 376.175L279.61 371.599L291.541 368.167H305.957L308.442 368.739L312.916 369.883L314.905 371.599L317.887 372.743L319.876 374.459C320.539 374.65 321.964 374.917 322.361 374.459C322.759 374.002 323.521 373.506 323.853 373.315V371.599L323.355 370.455L321.864 367.595L318.882 363.02L312.916 356.728L311.922 355.012L312.916 354.44L318.384 353.868L346.222 349.864C347.879 349.483 351.193 348.606 351.193 348.148C351.193 347.691 351.856 346.432 352.188 345.86L351.193 343.001L345.228 339.569L334.789 333.849L326.338 328.701L312.916 312.498L297.688 286.498L296.188 273.498L300.688 260.064L308.939 248.053L316.893 237.757L322.858 227.462L329.818 208.587L333.298 195.431L337.274 178.844L339.76 161.113L340.754 149.673L341.251 137.09L341.748 125.65L341.251 112.495L339.76 99.3394L336.777 73.0286L334.789 62.1611L332.8 53.5815C331.806 51.1029 329.818 46.0314 329.818 45.5738C329.818 45.1163 328.161 43.8579 327.332 43.2859H323.853L320.87 44.4299L312.419 52.4375L301.98 61.5891L292.038 73.0286L279.61 87.328L266.188 102.771L255.749 117.643L245.31 131.942L234.871 149.673L226.917 163.401Z" stroke="white" stroke-width="82" stroke-miterlimit="16" stroke-linejoin="round" mask="url(#path-1-outside-1_77_8)"/>
<path d="M226.917 163.401L215.484 186.852H211.507L206.536 186.28H201.068L194.605 185.708L188.143 185.136L187.149 183.42L185.658 179.988L184.663 177.7L178.698 165.688L167.762 145.669C166.105 143 162.691 137.547 162.294 137.09C161.896 136.632 154.837 126.604 151.357 121.646L145.392 112.495L136.444 101.627L126.999 90.7598L113.577 75.8885L93.1962 54.7254L87.2309 49.0057L82.757 44.4299L78.7802 40.998H74.3062L71.3236 42.714L68.341 45.0019L65.3583 51.2936L63.867 59.3012L61.3815 70.7407L59.3931 83.8961L57.9018 95.3356L56.4105 106.203L54.9192 116.499L54.4221 123.934L54.9192 139.95L55.4163 150.817L56.4105 160.541L58.3989 173.696L60.3873 183.992L64.3641 199.435L67.3468 209.731L71.8207 218.882L78.7802 230.894L83.7512 238.901L94.6875 252.057L97.6875 258.498L99.6875 267.998L98.6643 279.511L91.2078 294.383L85.2425 302.962L78.7802 312.114L70.3294 320.122L65.3583 324.125L60.8844 327.557L53.925 332.705L45.9713 337.281L42.4915 339.569L41.0002 342.429V345.86L42.9886 348.148L46.9655 351.008L52.4336 352.152L60.3873 353.296L68.341 354.44H80.2715H83.7512L83.2541 355.584L81.2657 357.3L78.7802 359.588L73.8091 365.308L71.3236 368.167L69.3352 371.599L68.8381 374.459L69.8323 375.031H71.8207L75.7975 373.315L83.7512 371.027L90.2136 370.455H96.6759L101.647 371.027L108.606 372.171L111.589 373.315L118.051 374.459L123.52 376.175L130.976 377.891L137.438 379.607L142.907 381.323L146.386 383.039L160.188 395.622L173.688 401.998L190.188 405.998H200.188L211.688 404.498L229.688 395.622L236.859 392.762L244.813 388.187L260.223 380.751L271.16 376.175L279.61 371.599L291.541 368.167H305.957L308.442 368.739L312.916 369.883L314.905 371.599L317.887 372.743L319.876 374.459C320.539 374.65 321.964 374.917 322.361 374.459C322.759 374.002 323.521 373.506 323.853 373.315V371.599L323.355 370.455L321.864 367.595L318.882 363.02L312.916 356.728L311.922 355.012L312.916 354.44L318.384 353.868L346.222 349.864C347.879 349.483 351.193 348.606 351.193 348.148C351.193 347.691 351.856 346.432 352.188 345.86L351.193 343.001L345.228 339.569L334.789 333.849L326.338 328.701L312.916 312.498L297.688 286.498L296.188 273.498L300.688 260.064L308.939 248.053L316.893 237.757L322.858 227.462L329.818 208.587L333.298 195.431L337.274 178.844L339.76 161.113L340.754 149.673L341.251 137.09L341.748 125.65L341.251 112.495L339.76 99.3394L336.777 73.0286L334.789 62.1611L332.8 53.5815C331.806 51.1029 329.818 46.0314 329.818 45.5738C329.818 45.1163 328.161 43.8579 327.332 43.2859H323.853L320.87 44.4299L312.419 52.4375L301.98 61.5891L292.038 73.0286L279.61 87.328L266.188 102.771L255.749 117.643L245.31 131.942L234.871 149.673L226.917 163.401Z" stroke="black" stroke-width="20" stroke-miterlimit="16" stroke-linejoin="round"/>
<path d="M174.518 337.998L170.608 339.643L167.188 345.674L168.654 353.35L173.052 359.381L178.916 364.864L185.758 368.154L194.066 366.509L199.93 362.123L206.283 357.736L209.704 348.964L208.238 343.481L204.817 339.643L198.464 337.998H185.758H174.518Z" fill="black"/>
<path d="M278.343 231.181L268.616 239.471L261.205 228.59L255.647 220.818L247.773 214.083L231.727 203.72L238.08 190.462L247.773 171.82L262.027 150.986L272.778 133.44L286.461 115.122L293.303 106.574L303.077 95.0604L310.765 86.6249L312.617 85.0705L314.007 89.2155L315.396 101.132L317.249 115.122V130.147L315.396 149.318L312.617 170.561L307.986 187.141L299.648 203.72L292.238 216.155L284.827 224.963L278.343 231.181Z" fill="white"/>
<path d="M162.78 196.467L167.874 204.239L164.632 206.311L160.464 208.902L155.832 211.492L150.274 214.601L144.253 218.746L139.158 223.409L133.6 229.627L128.968 236.88L126.189 234.808L118.778 228.59L111.367 221.337L103.493 212.01L94.2299 197.503L89.135 185.068L86.356 175.742L83.577 165.898L82.1875 152.426V139.473V123.412L83.577 103.205L84.9665 94.3967L86.356 85.0705L87.2824 82.998L89.135 85.0705L90.5246 88.6974L93.7668 94.3967L97.9353 103.205L104.42 114.603L115.536 130.147L128.505 146.727L141.474 163.307L154.442 182.477L162.78 196.467Z" fill="white"/>
<path d="M278.343 231.181L268.616 239.471L261.205 228.59L255.647 220.818L247.773 214.083L231.727 203.72L238.08 190.462L247.773 171.82L262.027 150.986L272.778 133.44L286.461 115.122L293.303 106.574L303.077 95.0604L310.765 86.6249L312.617 85.0705L314.007 89.2155L315.396 101.132L317.249 115.122V130.147L315.396 149.318L312.617 170.561L307.986 187.141L299.648 203.72L292.238 216.155L284.827 224.963L278.343 231.181Z" stroke="black" stroke-width="10"/>
<path d="M162.78 196.467L167.874 204.239L164.632 206.311L160.464 208.902L155.832 211.492L150.274 214.601L144.253 218.746L139.158 223.409L133.6 229.627L128.968 236.88L126.189 234.808L118.778 228.59L111.367 221.337L103.493 212.01L94.2299 197.503L89.135 185.068L86.356 175.742L83.577 165.898L82.1875 152.426V139.473V123.412L83.577 103.205L84.9665 94.3967L86.356 85.0705L87.2824 82.998L89.135 85.0705L90.5246 88.6974L93.7668 94.3967L97.9353 103.205L104.42 114.603L115.536 130.147L128.505 146.727L141.474 163.307L154.442 182.477L162.78 196.467Z" stroke="black" stroke-width="10"/>
</svg>
